<svg xmlns="http://www.w3.org/2000/svg" viewBox="0 0 512 512">
  <defs>
    <radialGradient id="grad1" cx="50%" cy="50%" r="50%" fx="50%" fy="50%">
      <stop offset="0%" style="stop-color:#4ADE80;stop-opacity:1" />
      <stop offset="70%" style="stop-color:#22c55e;stop-opacity:1" />
      <stop offset="100%" style="stop-color:#14532d;stop-opacity:1" />
    </radialGradient>
    <filter id="glow">
      <feGaussianBlur stdDeviation="15" result="coloredBlur"/>
      <feMerge>
        <feMergeNode in="coloredBlur"/>
        <feMergeNode in="SourceGraphic"/>
      </feMerge>
    </filter>
  </defs>
  <rect width="512" height="512" rx="128" fill="#0A0A0B"/>
  <circle cx="256" cy="256" r="140" fill="url(#grad1)" filter="url(#glow)"/>
  <path d="M180 256c0-20 10-30 20-30s20 10 20 30-10 30-20 30-20-10-20-30m60 0c0-40 10-60 30-60s30 20 30 60-10 60-30 60-30-20-30-60m80 0c0-25 10-40 25-40s25 15 25 40-10 40-25 40-25-15-25-40" stroke="#DCFCE7" stroke-width="24" stroke-linecap="round" fill="none" opacity="0.9"/>
</svg>
